<svg width="250" height="265" viewBox="0 0 250 265" fill="none" xmlns="http://www.w3.org/2000/svg">
<g clip-path="url(#clip0_5_482)">
<path d="M242.194 116.008C231.172 109.941 219.658 104.779 207.768 100.575C142.023 77.2479 76.8306 86.2382 51.3129 119.622C71.1715 78.7243 142.031 65.8644 213.538 91.2349C221.861 94.1851 230.005 97.5969 237.933 101.454C239.66 106.214 241.083 111.074 242.194 116.008Z" fill="#3396B4"/>
<path d="M175.204 116.038C190.228 116.038 202.408 104.096 202.408 89.3639C202.408 74.6322 190.228 62.6898 175.204 62.6898C160.18 62.6898 148 74.6322 148 89.3639C148 104.096 160.18 116.038 175.204 116.038Z" fill="#FF6584"/>
<path d="M249.825 109.252C249.885 109.241 249.93 109.2 250 109.211C249.969 109.095 249.929 108.982 249.881 108.873C249.794 108.989 249.706 109.107 249.628 109.21L249.825 109.252Z" fill="white"/>
<path d="M67.3662 152.497C67.525 158.316 68.5192 164.085 70.3193 169.632C70.3605 169.761 70.4036 169.888 70.4467 170.017H81.4677C81.4559 169.901 81.4441 169.773 81.4324 169.632C80.6975 161.349 76.4608 110.933 81.5265 102.311C81.0836 103.01 66.5118 126.176 67.3662 152.497Z" fill="#558F65"/>
<path d="M68.1931 169.632C68.2852 169.761 68.3812 169.89 68.4792 170.017H76.7469C76.6842 169.907 76.6117 169.778 76.5274 169.632C75.1616 167.215 71.1189 159.988 67.3662 152.497C63.3332 144.445 59.6335 136.089 59.945 133.064C59.849 133.747 57.0585 154.541 68.1931 169.632Z" fill="#558F65"/>
<path d="M154.106 171.018C153.967 176.092 153.101 181.121 151.531 185.957C151.495 186.07 151.458 186.18 151.42 186.293H141.812C141.822 186.192 141.833 186.08 141.843 185.957C142.483 178.736 146.177 134.782 141.761 127.266C142.147 127.875 154.851 148.071 154.106 171.018Z" fill="#558F65"/>
<path d="M153.385 185.957C153.305 186.07 153.221 186.182 153.136 186.293H145.928C145.982 186.197 146.046 186.085 146.119 185.957C147.31 183.85 150.834 177.55 154.106 171.018C157.622 163.999 160.847 156.714 160.576 154.077C160.66 154.672 163.092 172.801 153.385 185.957Z" fill="#558F65"/>
<path d="M44.2473 21.6509L48.728 18.137C45.2471 17.7604 43.8169 19.6219 43.2316 21.0952C40.5122 19.988 37.5518 21.4391 37.5518 21.4391L46.5169 24.6304C46.0646 23.4458 45.2773 22.4123 44.2473 21.6509Z" fill="#3F3D56"/>
<path d="M179.203 3.56319L183.684 0.0492118C180.203 -0.32735 178.773 1.5341 178.187 3.00745C175.468 1.90023 172.508 3.3513 172.508 3.3513L181.473 6.5426C181.02 5.35809 180.233 4.32456 179.203 3.56319Z" fill="#3F3D56"/>
<path d="M245.129 142.524C245.129 145.436 245.025 148.324 244.818 151.188C243.222 173.783 235.232 195.495 221.745 213.883C219.983 216.295 218.132 218.64 216.193 220.916C211.17 226.824 205.592 232.256 199.534 237.142L172.978 221.863L157.1 185.526C157.1 185.526 180.79 138.493 245.087 139.346C245.113 140.402 245.127 141.461 245.129 142.524Z" fill="#3F3D56"/>
<path d="M244.818 151.188C243.597 168.073 238.819 184.526 230.787 199.51C222.754 214.494 211.642 227.682 198.151 238.243L173.48 224.05L159.399 191.823C159.399 191.823 182.216 146.525 244.818 151.188Z" fill="#1A6357"/>
<path d="M221.745 213.883C219.983 216.295 218.132 218.64 216.193 220.916C203.202 236.221 186.603 248.19 167.832 255.788C164.031 257.325 160.141 258.68 156.162 259.853C127.426 267.346 96.9821 265.451 69.4435 254.454C42.208 242.535 20.199 221.484 7.36952 195.084C5.64536 191.53 4.09488 187.885 2.71809 184.151C26.73 166.903 74.0451 142.205 125.613 166.204C139.878 172.843 152.615 178.894 163.825 184.358C192.269 198.183 211.201 208.15 221.745 213.883Z" fill="#3F3D56"/>
<path d="M216.193 220.916C202.764 236.697 185.504 248.913 165.999 256.44C146.495 263.968 125.373 266.565 104.577 263.992C83.7813 261.419 63.9791 253.76 46.9925 241.719C30.0059 229.677 16.3804 213.64 7.36952 195.084C27.4235 179.534 73.6772 151.59 124.437 175.21C137.491 181.284 149.145 186.822 159.399 191.823C189.292 206.351 207.707 216.224 216.193 220.916Z" fill="#129483"/>
<path d="M180.798 249.66C176.599 251.943 172.27 253.989 167.832 255.788C152.732 261.89 136.555 265.02 120.222 265C100.896 264.992 81.8347 260.592 64.5353 252.144C47.2359 243.696 32.1695 231.43 20.5192 216.31C50.3512 213.226 132.812 209.067 180.798 249.66Z" fill="#3F3D56"/>
<path d="M167.832 255.788C144.417 265.229 118.63 267.477 93.8834 262.237C69.1364 256.996 46.5947 244.513 29.2397 226.439C40.0904 224.876 125.28 214.143 167.832 255.788Z" fill="#3EAF98"/>
<path d="M224.178 74.6067V74.6105C134.989 9.95014 32.803 55.4615 32.0137 55.8109V55.8071C43.5959 44.4517 57.349 35.4481 72.4852 29.3121C87.6214 23.1761 103.843 20.0282 120.222 20.0488C163.583 20.0487 201.783 41.7149 224.178 74.6067Z" fill="#83B8DF"/>
<path d="M39.1672 144.899C54.2551 142.231 61.9867 115.598 56.4362 85.4117C50.8856 55.2253 34.1548 32.9168 19.0669 35.5841C3.97894 38.2515 -3.75265 64.8847 1.7979 95.0711C7.34844 125.257 24.0793 147.566 39.1672 144.899Z" fill="#3F3D56"/>
<path d="M43.0447 180.152C42.1502 113.848 19.5255 51.6258 19.2971 51.0055L17.2338 51.7353C17.461 52.3525 39.9616 114.249 40.8515 180.182L43.0447 180.152Z" fill="#6C63FF"/>
<path d="M2.90398 82.7405L2.22891 84.7873L29.3152 93.3765L29.9903 91.3297L2.90398 82.7405Z" fill="#6C63FF"/>
<path d="M53.8556 80.4349L31.5383 97.7656L32.9003 99.4519L55.2176 82.1213L53.8556 80.4349Z" fill="#6C63FF"/>
<path d="M111.716 135.34C128.305 135.34 141.754 108.433 141.754 75.2419C141.754 42.0508 128.305 15.1441 111.716 15.1441C95.1259 15.1441 81.6772 42.0508 81.6772 75.2419C81.6772 108.433 95.1259 135.34 111.716 135.34Z" fill="#3F3D56"/>
<path d="M108.942 173.612C120.973 102.835 109.063 32.3135 108.941 31.61L106.601 31.9987C106.722 32.6988 118.563 102.85 106.6 173.23L108.942 173.612Z" fill="#6C63FF"/>
<path d="M85.2696 62.319L84.1499 64.3716L111.313 78.6178L112.433 76.5653L85.2696 62.319Z" fill="#6C63FF"/>
<path d="M139.981 69.4554L112.821 83.7097L113.941 85.762L141.101 71.5076L139.981 69.4554Z" fill="#6C63FF"/>
<path d="M153.401 50.1954L157.882 46.6814C154.401 46.3049 152.971 48.1663 152.386 49.6397C149.666 48.5325 146.706 49.9835 146.706 49.9835L155.671 53.1748C155.219 51.9903 154.432 50.9568 153.401 50.1954Z" fill="#3F3D56"/>
<path d="M36.8641 181.432V204.704H31.5914L23.1823 192.477H23.0459V204.704H16.7278V181.432H22.0914L30.3641 193.613H30.5459V181.432H36.8641ZM44.8073 204.977C43.6937 204.977 42.7088 204.795 41.8528 204.432C41.0043 204.06 40.3376 203.5 39.8528 202.75C39.3679 202 39.1255 201.045 39.1255 199.886C39.1255 198.932 39.2884 198.117 39.6141 197.443C39.9399 196.761 40.3944 196.204 40.9778 195.772C41.5611 195.341 42.2391 195.011 43.0118 194.784C43.7921 194.557 44.6331 194.409 45.5346 194.341C46.5118 194.265 47.2959 194.174 47.8868 194.068C48.4853 193.954 48.9171 193.799 49.1823 193.602C49.4475 193.397 49.58 193.129 49.58 192.795V192.75C49.58 192.295 49.4058 191.947 49.0573 191.704C48.7088 191.462 48.2618 191.341 47.7164 191.341C47.1179 191.341 46.6293 191.473 46.2505 191.738C45.8793 191.996 45.6558 192.394 45.58 192.932H39.8073C39.8831 191.871 40.2202 190.894 40.8187 190C41.4247 189.098 42.3073 188.379 43.4664 187.841C44.6255 187.295 46.0725 187.022 47.8073 187.022C49.0573 187.022 50.1785 187.17 51.1709 187.466C52.1634 187.754 53.0081 188.159 53.705 188.682C54.402 189.197 54.9323 189.803 55.2959 190.5C55.6671 191.189 55.8528 191.939 55.8528 192.75V204.704H49.9891V202.25H49.8528C49.5043 202.901 49.08 203.428 48.58 203.829C48.0876 204.231 47.5232 204.522 46.8868 204.704C46.2581 204.886 45.5649 204.977 44.8073 204.977ZM46.8528 201.022C47.33 201.022 47.777 200.924 48.1937 200.727C48.6179 200.53 48.9626 200.246 49.2278 199.875C49.4929 199.504 49.6255 199.053 49.6255 198.522V197.068C49.4588 197.136 49.2808 197.2 49.0914 197.261C48.9096 197.322 48.7126 197.379 48.5005 197.432C48.2959 197.485 48.0762 197.534 47.8414 197.579C47.6141 197.625 47.3755 197.666 47.1255 197.704C46.6406 197.78 46.2429 197.905 45.9323 198.079C45.6293 198.246 45.402 198.454 45.2505 198.704C45.1065 198.947 45.0346 199.219 45.0346 199.522C45.0346 200.007 45.205 200.379 45.5459 200.636C45.8868 200.894 46.3224 201.022 46.8528 201.022ZM69.259 187.25V191.795H57.759V187.25H69.259ZM59.9863 183.068H66.259V199.091C66.259 199.333 66.3007 199.538 66.384 199.704C66.4673 199.863 66.5961 199.985 66.7704 200.068C66.9446 200.144 67.1681 200.182 67.4408 200.182C67.6302 200.182 67.8499 200.159 68.0999 200.113C68.3575 200.068 68.5469 200.03 68.6681 200L69.5772 204.409C69.2969 204.492 68.8954 204.594 68.3726 204.716C67.8575 204.837 67.2439 204.916 66.5317 204.954C65.0923 205.03 63.884 204.882 62.9067 204.511C61.9295 204.132 61.1946 203.538 60.7022 202.727C60.2098 201.916 59.9711 200.901 59.9863 199.682V183.068ZM83.1368 197.068V187.25H89.4096V204.704H83.455V201.386H83.2732C82.8944 202.5 82.2315 203.371 81.2846 204C80.3376 204.621 79.2126 204.932 77.9096 204.932C76.6899 204.932 75.6217 204.651 74.705 204.091C73.7959 203.53 73.0876 202.757 72.58 201.772C72.08 200.788 71.8262 199.659 71.8187 198.386V187.25H78.0914V197.068C78.099 197.932 78.3187 198.61 78.7505 199.102C79.1899 199.594 79.8035 199.841 80.5914 199.841C81.1141 199.841 81.5649 199.731 81.9437 199.511C82.33 199.284 82.6255 198.966 82.83 198.557C83.0421 198.14 83.1444 197.644 83.1368 197.068ZM92.5999 204.704V187.25H98.6908V190.568H98.8726C99.1908 189.341 99.6946 188.443 100.384 187.875C101.081 187.307 101.895 187.022 102.827 187.022C103.1 187.022 103.369 187.045 103.634 187.091C103.907 187.129 104.168 187.185 104.418 187.261V192.613C104.107 192.507 103.725 192.428 103.27 192.375C102.816 192.322 102.426 192.295 102.1 192.295C101.486 192.295 100.933 192.435 100.441 192.716C99.956 192.988 99.5734 193.375 99.2931 193.875C99.0128 194.367 98.8726 194.947 98.8726 195.613V204.704H92.5999ZM113.839 205.022C111.975 205.022 110.369 204.666 109.02 203.954C107.679 203.235 106.645 202.204 105.918 200.863C105.198 199.515 104.839 197.901 104.839 196.022C104.839 194.219 105.202 192.644 105.929 191.295C106.657 189.947 107.683 188.897 109.009 188.147C110.335 187.397 111.899 187.022 113.702 187.022C115.02 187.022 116.214 187.227 117.282 187.636C118.35 188.045 119.263 188.64 120.02 189.42C120.778 190.193 121.361 191.132 121.77 192.238C122.179 193.344 122.384 194.591 122.384 195.977V197.432H106.793V193.977H116.611C116.604 193.477 116.475 193.038 116.225 192.659C115.982 192.272 115.653 191.973 115.236 191.761C114.827 191.541 114.361 191.432 113.839 191.432C113.331 191.432 112.865 191.541 112.441 191.761C112.017 191.973 111.676 192.269 111.418 192.647C111.168 193.026 111.036 193.469 111.02 193.977V197.704C111.02 198.265 111.138 198.765 111.373 199.204C111.607 199.644 111.945 199.988 112.384 200.238C112.823 200.488 113.354 200.613 113.975 200.613C114.407 200.613 114.801 200.553 115.157 200.432C115.52 200.31 115.831 200.136 116.089 199.909C116.346 199.674 116.536 199.394 116.657 199.068H122.384C122.187 200.28 121.721 201.333 120.986 202.227C120.251 203.113 119.278 203.803 118.066 204.295C116.861 204.78 115.452 205.022 113.839 205.022ZM129.591 181.432L134.364 197.841H134.546L139.319 181.432H146.455L138.773 204.704H130.137L122.455 181.432H129.591ZM148.787 204.704V187.25H155.06V204.704H148.787ZM151.924 185.432C151.075 185.432 150.348 185.151 149.742 184.591C149.136 184.03 148.833 183.356 148.833 182.568C148.833 181.78 149.136 181.106 149.742 180.545C150.348 179.985 151.075 179.704 151.924 179.704C152.78 179.704 153.507 179.985 154.106 180.545C154.712 181.106 155.015 181.78 155.015 182.568C155.015 183.356 154.712 184.03 154.106 184.591C153.507 185.151 152.78 185.432 151.924 185.432ZM166.62 205.022C164.756 205.022 163.15 204.666 161.802 203.954C160.461 203.235 159.427 202.204 158.699 200.863C157.98 199.515 157.62 197.901 157.62 196.022C157.62 194.219 157.983 192.644 158.711 191.295C159.438 189.947 160.464 188.897 161.79 188.147C163.116 187.397 164.68 187.022 166.483 187.022C167.802 187.022 168.995 187.227 170.063 187.636C171.131 188.045 172.044 188.64 172.802 189.42C173.559 190.193 174.143 191.132 174.552 192.238C174.961 193.344 175.165 194.591 175.165 195.977V197.432H159.574V193.977H169.393C169.385 193.477 169.256 193.038 169.006 192.659C168.764 192.272 168.434 191.973 168.018 191.761C167.608 191.541 167.143 191.432 166.62 191.432C166.112 191.432 165.646 191.541 165.222 191.761C164.798 191.973 164.457 192.269 164.199 192.647C163.949 193.026 163.817 193.469 163.802 193.977V197.704C163.802 198.265 163.919 198.765 164.154 199.204C164.389 199.644 164.726 199.988 165.165 200.238C165.605 200.488 166.135 200.613 166.756 200.613C167.188 200.613 167.582 200.553 167.938 200.432C168.302 200.31 168.612 200.136 168.87 199.909C169.127 199.674 169.317 199.394 169.438 199.068H175.165C174.968 200.28 174.502 201.333 173.768 202.227C173.033 203.113 172.059 203.803 170.847 204.295C169.643 204.78 168.233 205.022 166.62 205.022ZM180.597 204.704L176.233 187.25H182.506L184.506 197.886H184.643L186.87 187.25H192.961L195.279 197.795H195.415L197.324 187.25H203.597L199.233 204.704H192.461L190.006 195.341H189.824L187.37 204.704H180.597ZM205.461 204.704V200.159L214.143 192.977C214.718 192.5 215.211 192.053 215.62 191.636C216.036 191.212 216.355 190.776 216.574 190.329C216.802 189.882 216.915 189.386 216.915 188.841C216.915 188.242 216.786 187.731 216.529 187.307C216.279 186.882 215.93 186.557 215.483 186.329C215.036 186.094 214.521 185.977 213.938 185.977C213.355 185.977 212.839 186.094 212.393 186.329C211.953 186.564 211.612 186.909 211.37 187.363C211.127 187.818 211.006 188.371 211.006 189.022H205.006C205.006 187.386 205.374 185.977 206.108 184.795C206.843 183.613 207.881 182.704 209.222 182.068C210.563 181.432 212.135 181.113 213.938 181.113C215.802 181.113 217.415 181.413 218.779 182.011C220.15 182.602 221.207 183.435 221.949 184.511C222.699 185.587 223.074 186.848 223.074 188.295C223.074 189.189 222.889 190.079 222.518 190.966C222.146 191.844 221.48 192.818 220.518 193.886C219.555 194.954 218.188 196.227 216.415 197.704L214.233 199.522V199.659H223.324V204.704H205.461Z" fill="white"/>
</g>
<defs>
<clipPath id="clip0_5_482">
<rect width="250" height="265" fill="white"/>
</clipPath>
</defs>
</svg>
